<?xml version="1.0" encoding="UTF-8"?>
<svg xmlns="http://www.w3.org/2000/svg" xmlns:xlink="http://www.w3.org/1999/xlink"
     version="1.1"
     id="Capa_1"
     x="0px"
     y="0px"
     viewBox="0 0 50 50"
     style="enable-background:new 0 0 50 50;"
     xml:space="preserve"
     width="50"
     height="50">

    <g id="trash">
    	<path d="M490.667,96c0-17.673-14.327-32-32-32h-80.555C364.632,25.757,328.549,0.13,288,0h-64   c-40.549,0.13-76.632,25.757-90.112,64H53.333c-17.673,0-32,14.327-32,32l0,0c0,17.673,14.327,32,32,32H64v266.667   C64,459.468,116.532,512,181.333,512h149.333C395.468,512,448,459.468,448,394.667V128h10.667   C476.34,128,490.667,113.673,490.667,96z M384,394.667C384,424.122,360.122,448,330.667,448H181.333   C151.878,448,128,424.122,128,394.667V128h256V394.667z"/>
        <path d="M202.667,384c17.673,0,32-14.327,32-32V224c0-17.673-14.327-32-32-32s-32,14.327-32,32v128   C170.667,369.673,184.994,384,202.667,384z"/>
        <path d="M309.333,384c17.673,0,32-14.327,32-32V224c0-17.673-14.327-32-32-32s-32,14.327-32,32v128   C277.333,369.673,291.66,384,309.333,384z"/>
    </g>

    <g id="lock">
	    <path d="M405.333,179.712v-30.379C405.333,66.859,338.475,0,256,0S106.667,66.859,106.667,149.333v30.379   c-38.826,16.945-63.944,55.259-64,97.621v128C42.737,464.214,90.452,511.93,149.333,512h213.333   c58.881-0.07,106.596-47.786,106.667-106.667v-128C469.278,234.971,444.159,196.657,405.333,179.712z M277.333,362.667   c0,11.782-9.551,21.333-21.333,21.333c-11.782,0-21.333-9.551-21.333-21.333V320c0-11.782,9.551-21.333,21.333-21.333   c11.782,0,21.333,9.551,21.333,21.333V362.667z M362.667,170.667H149.333v-21.333c0-58.91,47.756-106.667,106.667-106.667   s106.667,47.756,106.667,106.667V170.667z"/>
    </g>

    <g id="lockOpen">
        <path d="m24.008,4.891c-.306-2.788-2.674-4.891-5.508-4.891-3.033,0-5.5,2.468-5.5,5.5v2.5H5c-2.757,0-5,2.243-5,5v6c0,2.757,2.243,5,5,5h8c2.757,0,5-2.243,5-5v-6c0-2.046-1.236-3.809-3-4.582v-2.918c0-1.93,1.57-3.5,3.5-3.5,1.782,0,3.328,1.365,3.52,3.109.06.549.564.944,1.103.885.549-.061.945-.555.885-1.104Zm-14.008,12.109c0,.553-.448,1-1,1s-1-.447-1-1v-2c0-.553.448-1,1-1s1,.447,1,1v2Z"/>
    </g>

    <g id="broom">
        <path d="M23.715,2.285a1.013,1.013,0,0,0-1.43,0L17.521,7.049l-.32-.313a5.008,5.008,0,0,0-6.429-.479A16.618,16.618,0,0,1,6.224,8.685L4.15,9.293a5.036,5.036,0,0,0-3.113,2.635A4.973,4.973,0,0,0,.9,15.947a12.95,12.95,0,0,0,12.112,8.064h.924a1.011,1.011,0,0,0,.578-.182A15.288,15.288,0,0,0,21.224,13.62a5.029,5.029,0,0,0-1.453-4.374l-.8-.784,4.747-4.747A1.013,1.013,0,0,0,23.715,2.285Zm-10.107,19.7h-.6A11.3,11.3,0,0,1,8.7,21.138l.011-.006a11.546,11.546,0,0,0,4.351-3.8l.518-.761a1.01,1.01,0,0,0-1.67-1.138l-.518.761A9.535,9.535,0,0,1,7.8,19.327l-1.251.63a10.757,10.757,0,0,1-2.583-2.57,11.625,11.625,0,0,0,4.377-2.664,1.011,1.011,0,0,0-1.414-1.446,9.617,9.617,0,0,1-3.98,2.32c-.061-.135-.127-.267-.182-.406a2.906,2.906,0,0,1,.085-2.381,3.023,3.023,0,0,1,1.864-1.578l2.073-.608a15.364,15.364,0,0,0,3.426-1.588l7.915,7.712A14.192,14.192,0,0,1,13.608,21.989Zm5.62-8.683a12.421,12.421,0,0,1-.309,1.387L11.948,7.9l0,0a3.011,3.011,0,0,1,1.755-.566,2.973,2.973,0,0,1,2.084.849l2.569,2.509A3.01,3.01,0,0,1,19.228,13.306Z"/>
    </g>

</svg>
